<?xml version="1.0" standalone="no"?>
<!DOCTYPE svg PUBLIC "-//W3C//DTD SVG 20010904//EN"
 "http://www.w3.org/TR/2001/REC-SVG-20010904/DTD/svg10.dtd">
<svg version="1.0" xmlns="http://www.w3.org/2000/svg"
 width="700.000000pt" height="700.000000pt" viewBox="0 0 700.000000 700.000000"
 preserveAspectRatio="xMidYMid meet">
<metadata>
Created by potrace 1.11, written by Peter Selinger 2001-2013
</metadata>
<g transform="translate(0.000000,700.000000) scale(0.100000,-0.100000)"
fill="#000000" stroke="none">
<path d="M3417 6634 c-1 -1 -33 -4 -72 -7 -180 -15 -379 -74 -560 -164 -234
-118 -497 -362 -616 -570 -24 -43 -24 -43 -84 -44 -73 0 -132 -6 -205 -20 -30
-6 -68 -13 -85 -15 -61 -10 -265 -84 -346 -124 -86 -44 -224 -130 -275 -171
-146 -123 -264 -252 -348 -383 -53 -83 -142 -270 -171 -361 -55 -169 -77 -310
-78 -495 -1 -246 65 -510 183 -730 27 -51 27 -55 3 -91 -31 -48 -86 -180 -118
-284 -25 -80 -28 -95 -40 -155 -3 -14 -7 -36 -10 -49 -19 -95 -25 -291 -13
-409 57 -551 393 -1027 891 -1262 92 -43 246 -96 337 -116 19 -4 37 -8 40 -9
3 -1 34 -5 70 -10 36 -5 70 -9 75 -10 6 -1 43 -3 83 -3 40 -1 72 -6 72 -12 0
-11 75 -122 129 -190 137 -174 336 -331 544 -430 96 -46 220 -92 277 -104 14
-3 57 -12 95 -20 125 -28 298 -37 455 -23 236 20 490 108 701 242 41 26 76 51
79 54 3 3 23 19 45 36 68 50 219 206 277 285 91 125 108 155 95 171 -10 11 -9
11 6 0 23 -18 183 -8 312 19 370 77 687 270 917 559 166 208 293 493 323 728
3 21 9 65 13 98 9 71 8 222 -2 320 -18 171 -72 355 -153 523 l-45 92 45 93
c70 144 126 316 142 437 40 301 19 532 -72 783 -160 448 -522 804 -970 953
-58 20 -115 37 -127 40 -17 3 -66 14 -86 19 -5 2 -96 14 -145 20 -16 2 -56 4
-88 4 l-57 1 -37 58 c-125 198 -315 382 -520 506 -182 109 -419 189 -628 212
-58 6 -253 12 -258 8z"/>
</g>
</svg>
