<svg class="logo-germinacion" xmlns="http://www.w3.org/2000/svg" viewBox="0 0 500 500">
	<style>
		@-webkit-keyframes rotate {
			0% {
				transform: rotate(0);
			}
			50% {
				transform: rotate(180deg);
			}
			100% {
				transform: rotate(360deg);
			}
		}

		@-webkit-keyframes scale-flower {
			0% {
				transform: scale(1);
			}
			50% {
				transform: scale(0.8);
			}
			100% {
				transform: scale(1);
			}
		}

		.estructura {
			transform-origin: 50% 50%;
			-webkit-animation: rotate 8s cubic-bezier(0.7, 0, 0.3, 1) infinite normal;
		}

		.flor {
			transform-origin: 50% 50%;
			-webkit-animation: scale-flower 8s cubic-bezier(0.7, 0, 0.3, 1) infinite normal;
		}
	</style>
  <g class="estructura">
    <path fill="#1A7A43" d="M444 138c20.7 35.9 19.3 78.5 0 112-9.5-16.5-23.3-30.8-41-41s-36.9-15-56-15l97-56z"/>
    <path fill="#25A55F" d="M444 250c19.3 33.5 20.7 76.1 0 112l-97-56c19 0 38.3-4.8 56-15 17.7-10.2 31.5-24.5 41-41zm0 0h-82c0-19-4.8-38.3-15-56 19 0 38.3 4.8 56 15 17.7 10.2 31.5 24.5 41 41z"/>
    <path fill="#1A7A43" d="M362 250h82c-9.5 16.5-23.3 30.8-41 41s-36.9 15-56 15c9.8-17 15-36.4 15-56z"/>
    <path fill="#25A55F" d="M444 138l-97 56c9.5-16.5 15-35.6 15-56s-5.5-39.5-15-56c38.7 0 76.3 20.1 97 56z"/>
    <path fill="#1A7A43" d="M444 362c-20.7 35.9-58.3 56-97 56 9.5-16.5 15-35.6 15-56s-5.5-39.5-15-56l97 56z"/>
    <path fill="#25A55F" d="M347 194c10.2 17.7 15 36.9 15 56H251.7c40.7-.6 76.2-23 95.3-56z"/>
    <path fill="#1A7A43" d="M251.7 250H362c0 19.6-5.2 39-15 56-19.2-33.2-55-55.7-96.1-56h.8zM347 82c9.5 16.5 15 35.6 15 56s-5.4 39.5-15 56c-10.2-17.7-24.5-31.5-41-41l41-71z"/>
    <path fill="#25A55F" d="M347 306c9.5 16.5 15 35.6 15 56s-5.5 39.5-15 56l-41-71c17.7-10.2 31.5-24.5 41-41z"/>
    <path fill="#1A7A43" d="M347 194c-19.1 33-54.6 55.4-95.3 56H250l97-56zm0 112l-97-56h.9c41.1.3 76.9 22.8 96.1 56zm0-224c-19 0-38.3 4.8-56 15-17.7 10.2-31.5 24.5-41 40.9V26c41.4 0 77.6 22.5 97 56zm0 224c-38.4 0-75.7-19.8-96.5-55.2-.1-.2-.3-.5-.4-.7L347 306z"/>
    <path fill="#25A55F" d="M347 418c-19.4 33.5-55.5 56-97 56V362c9.5 16.5 23.3 30.8 41 40.9 17.7 10.3 37 15.1 56 15.1zm0-336l-41 71c-17-9.8-36.4-15-56-15 9.5-16.5 23.3-30.8 41-40.9C308.7 86.8 328 82 347 82z"/>
    <path fill="#1A7A43" d="M347 418c-19 0-38.3-4.8-56-15-17.7-10.2-31.5-24.5-41-40.9 19 0 38.3-4.8 56-15l41 70.9zm0-224l-97 56c.1-.2.3-.5.4-.7 20.9-35.5 58.2-55.3 96.6-55.3z"/>
    <path fill="#25A55F" d="M347 306c-9.5 16.5-23.3 30.8-41 41l-55.2-95.5c-.1-.2-.3-.5-.4-.7 20.9 35.4 58.2 55.2 96.6 55.2z"/>
    <path fill="#1A7A43" d="M306 153c16.5 9.5 30.8 23.3 41 41-38.4 0-75.7 19.8-96.5 55.2.1-.2.3-.5.4-.7L306 153z"/>
    <path fill="#25A55F" d="M306 153l-55.2 95.6C270.7 213 269.1 171 250 138c19.6 0 39 5.2 56 15z"/>
    <path fill="#1A7A43" d="M250.8 251.4L306 347c-17.7 10.2-36.9 15-56 15 19.1-33.1 20.7-75 .8-110.6zM250 138c19.1 33.1 20.7 75 .8 110.6l-.8 1.4V138z"/>
    <path fill="#1A7A43" d="M250.8 251.4C270.7 287 269 328.9 250 362V250l.8 1.4zM250 362v112c-41.4 0-77.6-22.5-97-56 19 0 38.3-4.8 56-15 17.7-10.2 31.5-24.5 41-41z"/>
    <path fill="#25A55F" d="M250 362c-9.5 16.5-23.3 30.8-41 41s-37 15-56 15l41-71c17 9.8 36.4 15 56 15z"/>
    <path fill="#1A7A43" d="M250 250v112c-19.2-33.3-20.7-75.5-.4-111.2.1-.3.3-.5.4-.8zm0-112v112c-.1-.2-.3-.5-.4-.7-20.3-35.8-18.8-78 .4-111.3zm0 0c-19 0-38.3 4.9-56 15.1l-41-71c19 0 38.3 4.8 56 15 17.7 10.1 31.5 24.4 41 40.9z"/>
    <path fill="#25A55F" d="M250 26v112c-9.5-16.5-23.3-30.7-41-40.9s-37-15-56-15C172.4 48.5 208.6 26 250 26z"/>
    <path fill="#1A7A43" d="M249.2 248.6l.8 1.4-97-56c38.2 0 75.3 19.6 96.2 54.6zm.8 1.4h-1.7c-40.8-.6-76.2-23-95.4-56l97.1 56zm-56-97c17.7-10.2 37-15 56-15-19.2 33.3-20.7 75.5-.4 111.2-.1-.2-.3-.4-.4-.7L194 153zm56 97l-.8 1.4c-20.9 35-58 54.5-96.1 54.6l96.9-56zm0 0l-97 56c19.2-33.2 55-55.6 96.1-56h.9z"/>
    <path fill="#25A55F" d="M249.6 250.8c-20.3 35.7-18.7 78 .4 111.2-19.6 0-39-5.2-56-15l55.2-95.6c.1-.2.2-.4.4-.6z"/>
    <path fill="#1A7A43" d="M249.2 251.4L194 347c-16.5-9.5-30.8-23.3-41-41 38.2 0 75.3-19.6 96.2-54.6z"/>
    <path fill="#25A55F" d="M194 153l55.2 95.6c-20.9-35-58-54.6-96.2-54.6 9.5-16.5 23.3-30.8 41-41zm54.3 97h.8c-41.1.3-76.9 22.8-96.1 56-10.2-17.7-15-36.9-15-56h110.3z"/>
    <path fill="#1A7A43" d="M248.3 250H138c0-19.6 5.2-39 15-56 19.1 33 54.6 55.4 95.3 56z"/>
    <path fill="#25A55F" d="M153 82l41 71c-17.7 10.2-31.5 24.5-41 41-9.5-16.5-15-35.6-15-56s5.5-39.5 15-56z"/>
    <path fill="#1A7A43" d="M194 347l-41 71c-9.5-16.5-15-35.6-15-56s5.4-39.5 15-56h.1c10.1 17.7 24.4 31.5 40.9 41z"/>
    <path fill="#25A55F" d="M153 306c-19.1.1-38.3-4.8-56-15-17.7-10.2-31.5-24.5-41-41h82c0 19 4.8 38.3 15 56z"/>
    <path fill="#25A55F" d="M153 418c-38.7 0-76.3-20.1-97-56l96.9-56c-9.5 16.5-15 35.6-15 56 .1 20.4 5.6 39.5 15.1 56z"/>
    <path fill="#1A7A43" d="M153 82c-9.5 16.5-15 35.6-15 56s5.4 39.5 15 56l-97-56c20.7-35.9 58.3-56 97-56zm0 112c-9.8 17-15 36.4-15 56H56c9.5-16.5 23.3-30.8 41-41s36.9-15 56-15z"/>
    <path fill="#25A55F" d="M153 194c-19 0-38.3 4.8-55.9 15-17.7 10.2-31.5 24.5-41 41-19.3-33.5-20.7-76.1 0-112l96.9 56z"/>
    <path fill="#1A7A43" d="M153 306l-97 56c-20.7-35.9-19.3-78.5 0-112 9.5 16.5 23.3 30.8 41 41s36.9 15 56 15z"/>
  </g>
  <g class="flor" fill="#FFF">
    <path d="M250 83c-30.9 53.5-28.7 116.7 0 166.7 28.7-50 30.9-113.2 0-166.7zm0 334v-.1c30.8-53.4 28.6-116.8-.1-166.7-28.6 49.9-30.8 113.3.1 166.8 0-.1 0 0 0 0zM106.2 167l-.4-.2c30.9 53.4 86.6 83 144.1 83.2-28.9-49.8-82.3-83.1-144-83.2l.3.2zm287.9 166.2s.2.1.2 0c-30.9-53.4-86.7-83.1-144.3-83.2 28.9 49.8 82.5 83.3 144.2 83.3 0 0-.1 0-.1-.1z"/>
    <path d="M106.2 333.1l-.4.3c61.7 0 115.2-33.5 144.1-83.2-57.6.1-113.1 29.7-144 83.1-.1-.1.3-.2.3-.2zm287.9-166.2s.2-.1.1-.1c-61.7 0-115.3 33.5-144.2 83.3 57.6-.1 113.3-29.8 144.2-83.2 0-.1-.1 0-.1 0z"/>
  </g>
</svg>